<?xml version="1.0" standalone="no"?>
<!DOCTYPE svg PUBLIC "-//W3C//DTD SVG 20010904//EN"
 "http://www.w3.org/TR/2001/REC-SVG-20010904/DTD/svg10.dtd">
<svg version="1.0" xmlns="http://www.w3.org/2000/svg"
 width="700.000000pt" height="700.000000pt" viewBox="0 0 700.000000 700.000000"
 preserveAspectRatio="xMidYMid meet">
<metadata>
Created by potrace 1.14, written by Peter Selinger 2001-2017
</metadata>
<g transform="translate(0.000000,700.000000) scale(0.100000,-0.100000)"
fill="#000000" stroke="none">
<path d="M3730 6651 c0 -32 -141 -300 -250 -475 -60 -98 -250 -370 -270 -386
-3 -3 -35 -41 -70 -84 -207 -254 -531 -559 -784 -738 -45 -32 -85 -61 -91 -65
-5 -5 -28 -20 -50 -34 -223 -145 -365 -241 -377 -251 -7 -7 -40 -33 -72 -58
-146 -111 -362 -320 -495 -480 -79 -94 -205 -268 -270 -374 -166 -267 -335
-682 -387 -953 -2 -12 -8 -33 -13 -45 -5 -13 -9 -26 -9 -31 0 -7 -11 -75 -18
-111 -2 -10 -6 -44 -10 -75 -3 -31 -8 -64 -10 -74 -15 -84 -21 -387 -10 -527
18 -222 72 -460 125 -550 65 -112 199 -207 356 -252 68 -19 104 -22 240 -23
178 0 228 5 371 36 214 46 422 119 659 233 626 300 1232 800 1647 1360 50 67
93 125 98 129 7 7 107 -47 365 -198 50 -29 106 -62 125 -72 19 -11 107 -62
195 -113 88 -51 178 -103 200 -115 22 -13 60 -35 85 -49 25 -14 48 -26 51 -26
4 0 28 37 54 82 l47 81 -23 18 c-13 10 -27 19 -30 19 -4 0 -116 63 -250 141
-134 78 -307 177 -384 222 -77 44 -181 105 -232 134 l-92 54 48 82 c212 358
359 795 407 1207 10 88 12 397 3 495 -56 608 -296 1165 -745 1725 -99 124
-134 161 -134 141z"/>
<path d="M4925 5504 c-49 -86 -102 -177 -117 -203 -15 -25 -36 -62 -47 -81
l-19 -36 116 -66 c107 -62 118 -66 130 -50 17 23 262 447 262 454 0 6 -49 35
-160 96 -25 13 -49 28 -54 33 -6 5 -12 9 -15 9 -4 0 -46 -71 -96 -156z"/>
<path d="M5785 4555 c-126 -74 -231 -138 -233 -143 -1 -5 24 -55 58 -111 33
-57 60 -107 60 -112 0 -16 13 -10 117 50 55 32 107 61 114 65 8 3 34 19 59 34
25 15 77 45 115 66 39 22 72 41 74 42 3 3 -28 68 -52 109 -7 11 -27 46 -45 78
-19 31 -34 57 -35 57 -1 -1 -105 -61 -232 -135z"/>
<path d="M5927 3310 c-10 -4 -13 -40 -13 -137 l0 -133 273 0 c211 0 273 3 274
13 4 41 3 257 -1 258 -22 4 -524 3 -533 -1z"/>
<path d="M5672 2158 c-7 -7 -12 -15 -12 -19 0 -4 -25 -49 -55 -100 -53 -90
-64 -119 -47 -119 5 0 110 -58 233 -130 203 -117 225 -128 237 -113 7 10 38
62 69 117 l57 99 -23 18 c-13 11 -29 19 -37 19 -8 0 -14 5 -14 10 0 6 -4 10
-9 10 -5 0 -92 48 -193 106 -101 59 -186 108 -189 110 -3 2 -11 -2 -17 -8z"/>
<path d="M4905 1274 c-33 -20 -81 -48 -107 -61 -27 -14 -48 -30 -48 -37 0 -15
258 -460 268 -464 8 -2 207 109 224 126 5 5 -37 89 -103 203 -62 107 -121 211
-132 232 -12 20 -26 37 -31 37 -6 0 -38 -16 -71 -36z"/>
<path d="M2403 1234 c-6 -16 -20 -41 -176 -312 -43 -73 -77 -137 -77 -141 0
-5 26 -24 58 -42 31 -17 72 -40 90 -51 18 -10 44 -25 57 -34 24 -16 25 -16 50
29 5 9 63 109 128 221 64 112 117 206 117 209 0 8 -222 137 -235 137 -3 0 -8
-7 -12 -16z"/>
<path d="M3550 615 l0 -276 137 3 137 3 1 260 c0 143 -1 266 -3 273 -3 9 -40
12 -138 12 l-134 0 0 -275z"/>
</g>
</svg>
