<svg version="1.0" xmlns="http://www.w3.org/2000/svg" width="933.333" height="933.333" viewBox="0 0 700 700"><path d="M373 34.9c0 3.2-14.1 30-25 47.5-6 9.8-25 37-27 38.6-.3.3-3.5 4.1-7 8.4-20.7 25.4-53.1 55.9-78.4 73.8-4.5 3.2-8.5 6.1-9.1 6.5-.5.5-2.8 2-5 3.4-22.3 14.5-36.5 24.1-37.7 25.1-.7.7-4 3.3-7.2 5.8-14.6 11.1-36.2 32-49.5 48-7.9 9.4-20.5 26.8-27 37.4-16.6 26.7-33.5 68.2-38.7 95.3-.2 1.2-.8 3.3-1.3 4.5-.5 1.3-.9 2.6-.9 3.1 0 .7-1.1 7.5-1.8 11.1-.2 1-.6 4.4-1 7.5-.3 3.1-.8 6.4-1 7.4-1.5 8.4-2.1 38.7-1 52.7 1.8 22.2 7.2 46 12.5 55 6.5 11.2 19.9 20.7 35.6 25.2 6.8 1.9 10.4 2.2 24 2.3 17.8 0 22.8-.5 37.1-3.6 21.4-4.6 42.2-11.9 65.9-23.3 62.6-30 123.2-80 164.7-136 5-6.7 9.3-12.5 9.8-12.9.7-.7 10.7 4.7 36.5 19.8 5 2.9 10.6 6.2 12.5 7.2l19.5 11.3c8.8 5.1 17.8 10.3 20 11.5 2.2 1.3 6 3.5 8.5 4.9 2.5 1.4 4.8 2.6 5.1 2.6.4 0 2.8-3.7 5.4-8.2l4.7-8.1-2.3-1.8c-1.3-1-2.7-1.9-3-1.9-.4 0-11.6-6.3-25-14.1s-30.7-17.7-38.4-22.2c-7.7-4.4-18.1-10.5-23.2-13.4l-9.2-5.4 4.8-8.2c21.2-35.8 35.9-79.5 40.7-120.7 1-8.8 1.2-39.7.3-49.5-5.6-60.8-29.6-116.5-74.5-172.5-9.9-12.4-13.4-16.1-13.4-14.1zm119.5 114.7c-4.9 8.6-10.2 17.7-11.7 20.3-1.5 2.5-3.6 6.2-4.7 8.1l-1.9 3.6 11.6 6.6c10.7 6.2 11.8 6.6 13 5 1.7-2.3 26.2-44.7 26.2-45.4 0-.6-4.9-3.5-16-9.6-2.5-1.3-4.9-2.8-5.4-3.3-.6-.5-1.2-.9-1.5-.9-.4 0-4.6 7.1-9.6 15.6zm86 94.9c-12.6 7.4-23.1 13.8-23.3 14.3-.1.5 2.4 5.5 5.8 11.1 3.3 5.7 6 10.7 6 11.2 0 1.6 1.3 1 11.7-5 5.5-3.2 10.7-6.1 11.4-6.5.8-.3 3.4-1.9 5.9-3.4 2.5-1.5 7.7-4.5 11.5-6.6 3.9-2.2 7.2-4.1 7.4-4.2.3-.3-2.8-6.8-5.2-10.9-.7-1.1-2.7-4.6-4.5-7.8-1.9-3.1-3.4-5.7-3.5-5.7-.1.1-10.5 6.1-23.2 13.5zM592.7 369c-1 .4-1.3 4-1.3 13.7V396h27.3c21.1 0 27.3-.3 27.4-1.3.4-4.1.3-25.7-.1-25.8-2.2-.4-52.4-.3-53.3.1zm-25.5 115.2c-.7.7-1.2 1.5-1.2 1.9 0 .4-2.5 4.9-5.5 10-5.3 9-6.4 11.9-4.7 11.9.5 0 11 5.8 23.3 13 20.3 11.7 22.5 12.8 23.7 11.3.7-1 3.8-6.2 6.9-11.7l5.7-9.9-2.3-1.8c-1.3-1.1-2.9-1.9-3.7-1.9-.8 0-1.4-.5-1.4-1 0-.6-.4-1-.9-1s-9.2-4.8-19.3-10.6c-10.1-5.9-18.6-10.8-18.9-11-.3-.2-1.1.2-1.7.8zm-76.7 88.4c-3.3 2-8.1 4.8-10.7 6.1-2.7 1.4-4.8 3-4.8 3.7 0 1.5 25.8 46 26.8 46.4.8.2 20.7-10.9 22.4-12.6.5-.5-3.7-8.9-10.3-20.3-6.2-10.7-12.1-21.1-13.2-23.2-1.2-2-2.6-3.7-3.1-3.7-.6 0-3.8 1.6-7.1 3.6zm-250.2 4c-.6 1.6-2 4.1-17.6 31.2-4.3 7.3-7.7 13.7-7.7 14.1 0 .5 2.6 2.4 5.8 4.2 3.1 1.7 7.2 4 9 5.1 1.8 1 4.4 2.5 5.7 3.4 2.4 1.6 2.5 1.6 5-2.9.5-.9 6.3-10.9 12.8-22.1 6.4-11.2 11.7-20.6 11.7-20.9 0-.8-22.2-13.7-23.5-13.7-.3 0-.8.7-1.2 1.6zM355 638.5v27.6l13.7-.3 13.7-.3.1-26c0-14.3-.1-26.6-.3-27.3-.3-.9-4-1.2-13.8-1.2H355v27.5z"/></svg>